<svg xmlns="http://www.w3.org/2000/svg" version="1.1" xmlns:xlink="http://www.w3.org/1999/xlink" xmlns:svgjs="http://svgjs.dev/svgjs" width="2000" height="2000" viewBox="0 0 2000 2000"><g transform="matrix(1,0,0,1,-0.28443113772425477,-0.28443113772459583)"><svg viewBox="0 0 334 334" data-background-color="#ffffff" preserveAspectRatio="xMidYMid meet" height="2000" width="2000" xmlns="http://www.w3.org/2000/svg" xmlns:xlink="http://www.w3.org/1999/xlink"><g id="tight-bounds" transform="matrix(1,0,0,1,0.04749999999998522,0.04750000000001364)"><svg viewBox="0 0 333.90454557049503 333.90454557049503" height="333.90454557049503" width="333.90454557049503"><g><svg></svg></g><g><svg viewBox="0 0 333.90454557049503 333.90454557049503" height="333.90454557049503" width="333.90454557049503"><g><path d="M0 166.952c0-92.205 74.747-166.952 166.952-166.952 92.205 0 166.952 74.747 166.953 166.952 0 92.205-74.747 166.952-166.953 166.953-92.205 0-166.952-74.747-166.952-166.953zM166.952 323.227c86.308 0 156.274-69.966 156.275-156.275 0-86.308-69.966-156.274-156.275-156.274-86.308 0-156.274 69.966-156.274 156.274 0 86.308 69.966 156.274 156.274 156.275z" data-fill-palette-color="tertiary" fill="#ee3e38" stroke="transparent"></path><ellipse rx="160.27418187383762" ry="160.27418187383762" cx="166.95227278524752" cy="166.95227278524752" fill="#ee3e38" stroke="transparent" stroke-width="0" fill-opacity="1" data-fill-palette-color="tertiary"></ellipse></g><g transform="matrix(1,0,0,1,103.5746829611069,71.17305217166896)"><svg viewBox="0 0 126.75517964828124 191.55844122715712" height="191.55844122715712" width="126.75517964828124"><g><svg viewBox="0 0 126.75517964828124 191.55844122715712" height="191.55844122715712" width="126.75517964828124"><g><svg viewBox="0 0 126.75517964828124 191.55844122715712" height="191.55844122715712" width="126.75517964828124"><g><svg viewBox="0 0 126.75517964828124 191.55844122715712" height="191.55844122715712" width="126.75517964828124"><g id="textblocktransform"><svg viewBox="0 0 126.75517964828124 191.55844122715712" height="191.55844122715712" width="126.75517964828124" id="textblock"><g><svg viewBox="0 0 126.75517964828124 191.55844122715712" height="191.55844122715712" width="126.75517964828124"><g transform="matrix(1,0,0,1,0,0)"><svg width="126.75517964828124" viewBox="1.15 -35.8 24.450000000000003 36.949999999999996" height="191.55844122715712" data-palette-color="#ffffff"><path d="M8.85-22.5L8.85-22.5 8.9-16.25 8.7-7.6Q8.75-7.4 8.85-7.4 8.95-7.4 9-7.5L9-7.5Q10-8.9 11.48-8.9 12.95-8.9 12.95-8.3L12.95-8.3Q12.95-6.4 13.68-5.38 14.4-4.35 15.73-4.35 17.05-4.35 18.28-6.15 19.5-7.95 19.5-10.95L19.5-10.95Q19.5-11.95 19.1-13.35L19.1-13.35Q18.3-16.15 16.1-17.1L16.1-17.1Q14.5-17.75 10.9-17.75L10.9-17.75Q10.5-17.75 10.5-18.3L10.5-18.3Q10.5-21.1 11.5-21.2L11.5-21.2Q12.85-21.2 14.35-21.9L14.35-21.9Q17.35-23.3 17.35-27.65L17.35-27.65Q17.35-32.35 11.95-32.35L11.95-32.35 10.4-32.25Q9.5-32.05 9.4-31.5L9.4-31.5 9.4-31.35Q8.85-29.35 8.85-22.5ZM1.5 0.7L1.5 0.7 1.6 0.15Q2.1-0.75 2.45-7.18 2.8-13.6 2.8-19.18 2.8-24.75 2.58-28.13 2.35-31.5 1.35-33L1.35-33Q1.15-33.25 1.15-33.6 1.15-33.95 1.75-34.2L1.75-34.2Q5.85-35.8 12.9-35.8L12.9-35.8Q14.65-35.8 16.7-35.33 18.75-34.85 20.08-34.15 21.4-33.45 22.48-32 23.55-30.55 23.7-28.55L23.7-28.55Q23.7-21.3 17.7-20.2L17.7-20.2Q17.4-20.1 17.4-19.98 17.4-19.85 17.65-19.7L17.65-19.7Q20.75-19.2 22.85-17.2L22.85-17.2Q23.9-16.25 24.75-14.25 25.6-12.25 25.6-9.65L25.6-9.65Q25.6-6.3 23.65-3.3L23.65-3.3Q22.05-0.85 19 0.2L19 0.2Q17.3 0.8 15.2 0.8L15.2 0.8Q9.95 0.8 8.55-2.55L8.55-2.55Q8.5-2.7 8.4-2.7L8.4-2.7 8.2-2.5Q7.15 1 2.2 1.15L2.2 1.15Q1.5 1.15 1.5 0.7Z" opacity="1" transform="matrix(1,0,0,1,0,0)" fill="#ffffff" class="wordmark-text-0" data-fill-palette-color="quaternary" id="text-0"></path></svg></g></svg></g></svg></g></svg></g><g></g></svg></g></svg></g></svg></g></svg></g><defs></defs></svg><rect width="333.90454557049503" height="333.90454557049503" fill="none" stroke="none" visibility="hidden"></rect></g></svg></g></svg>